<svg width="82" height="82" viewBox="0 0 82 82" fill="none" xmlns="http://www.w3.org/2000/svg">
<g clip-path="url(#clip0_10154_619)">
<path d="M41.3685 0.407043C19.0778 0.407043 0.945312 18.5413 0.945312 40.8302C0.945312 63.1192 19.0778 81.2534 41.3685 81.2534C63.6592 81.2534 81.7917 63.1192 81.7917 40.8302C81.7917 18.5413 63.6592 0.407043 41.3685 0.407043ZM41.3685 77.8849C20.9365 77.8849 4.31386 61.2623 4.31386 40.8302C4.31386 20.3982 20.9365 3.77559 41.3685 3.77559C61.8005 3.77559 78.4232 20.3982 78.4232 40.8302C78.4232 61.2623 61.8005 77.8849 41.3685 77.8849Z" fill="white"/>
<path d="M57.4414 39.414L33.8612 24.2553C33.3447 23.9182 32.677 23.9 32.144 24.1928C31.6012 24.4889 31.2656 25.0548 31.2656 25.6715V55.9889C31.2656 56.6057 31.6012 57.1716 32.144 57.4677C32.394 57.6043 32.6736 57.6733 32.95 57.6733C33.2658 57.6733 33.5849 57.5844 33.8612 57.4052L57.4414 42.2465C57.9217 41.9373 58.2145 41.4026 58.2145 40.8302C58.2145 40.2578 57.9217 39.7233 57.4414 39.414ZM34.6342 52.9032V28.7573L53.4149 40.8302L34.6342 52.9032Z" fill="white"/>
</g>
<defs>
<clipPath id="clip0_10154_619">
<rect width="80.8464" height="80.8464" fill="white" transform="translate(0.945312 0.407043)"/>
</clipPath>
</defs>
</svg>
