<svg width="81" height="24" viewBox="0 0 81 24" fill="none" xmlns="http://www.w3.org/2000/svg">
<path d="M10.1488 1.76007H14.0188L23.2588 23.0001H17.9788L16.1487 18.5001H7.89875L6.12875 23.0001H0.96875L10.1488 1.76007ZM11.9488 7.94007L9.36875 14.5401H14.5588L11.9488 7.94007Z" fill="#01996D"/>
<path d="M24.8851 0.320068H29.3851V23.0001H24.8851V0.320068Z" fill="#01996D"/>
<path d="M32.678 8.42007H37.178V23.0001H32.678V8.42007ZM32.318 3.83007C32.318 3.11007 32.568 2.50007 33.068 2.00007C33.588 1.48007 34.208 1.22007 34.928 1.22007C35.648 1.22007 36.258 1.48007 36.758 2.00007C37.278 2.50007 37.538 3.11007 37.538 3.83007C37.538 4.55007 37.278 5.17007 36.758 5.69007C36.258 6.19007 35.648 6.44007 34.928 6.44007C34.208 6.44007 33.588 6.19007 33.068 5.69007C32.568 5.17007 32.318 4.55007 32.318 3.83007Z" fill="#01996D"/>
<path d="M38.881 8.42007H43.741L47.431 18.3201H47.491L50.911 8.42007H55.441L49.681 23.0001H44.911L38.881 8.42007Z" fill="#01996D"/>
<path d="M57.1409 8.42007H61.6409V23.0001H57.1409V8.42007ZM56.7809 3.83007C56.7809 3.11007 57.0309 2.50007 57.5309 2.00007C58.0509 1.48007 58.6709 1.22007 59.3909 1.22007C60.1109 1.22007 60.7209 1.48007 61.2209 2.00007C61.7409 2.50007 62.0009 3.11007 62.0009 3.83007C62.0009 4.55007 61.7409 5.17007 61.2209 5.69007C60.7209 6.19007 60.1109 6.44007 59.3909 6.44007C58.6709 6.44007 58.0509 6.19007 57.5309 5.69007C57.0309 5.17007 56.7809 4.55007 56.7809 3.83007Z" fill="#01996D"/>
<path d="M64.3339 15.7101C64.3339 14.5501 64.5439 13.5001 64.9639 12.5601C65.3839 11.6201 65.9539 10.8201 66.6739 10.1601C67.4139 9.48007 68.2739 8.96007 69.2539 8.60007C70.2539 8.24007 71.3139 8.06007 72.4339 8.06007C73.5539 8.06007 74.6039 8.24007 75.5839 8.60007C76.5839 8.96007 77.4439 9.48007 78.1639 10.1601C78.9039 10.8201 79.4839 11.6201 79.9039 12.5601C80.3239 13.5001 80.5339 14.5501 80.5339 15.7101C80.5339 16.8701 80.3239 17.9201 79.9039 18.8601C79.4839 19.8001 78.9039 20.6101 78.1639 21.2901C77.4439 21.9501 76.5839 22.4601 75.5839 22.8201C74.6039 23.1801 73.5539 23.3601 72.4339 23.3601C71.3139 23.3601 70.2539 23.1801 69.2539 22.8201C68.2739 22.4601 67.4139 21.9501 66.6739 21.2901C65.9539 20.6101 65.3839 19.8001 64.9639 18.8601C64.5439 17.9201 64.3339 16.8701 64.3339 15.7101ZM68.8339 15.7101C68.8339 16.8101 69.1439 17.7001 69.7639 18.3801C70.4039 19.0601 71.2939 19.4001 72.4339 19.4001C73.5739 19.4001 74.4539 19.0601 75.0739 18.3801C75.7139 17.7001 76.0339 16.8101 76.0339 15.7101C76.0339 14.6101 75.7139 13.7201 75.0739 13.0401C74.4539 12.3601 73.5739 12.0201 72.4339 12.0201C71.2939 12.0201 70.4039 12.3601 69.7639 13.0401C69.1439 13.7201 68.8339 14.6101 68.8339 15.7101Z" fill="#01996D"/>
</svg>
